<mxfile host="app.diagrams.net" modified="2021-09-02T14:47:26.646Z" agent="5.0 (Macintosh; Intel Mac OS X 10_14_3) AppleWebKit/537.36 (KHTML, like Gecko) Chrome/93.0.4577.63 Safari/537.36" etag="Podn8az4I8Or_whQpjCi" version="15.0.3" type="github">
  <diagram id="Lof0R5rhfGAX3NdKyFyQ" name="Page-1">
    <mxGraphModel dx="243" dy="490" grid="0" gridSize="10" guides="1" tooltips="1" connect="1" arrows="1" fold="1" page="1" pageScale="1" pageWidth="900" pageHeight="270" background="#EFF1F3" math="0" shadow="0">
      <root>
        <mxCell id="0" />
        <mxCell id="1" parent="0" />
        <mxCell id="lHOGtCii_1D8-ynuGwen-7" value="" style="rounded=1;whiteSpace=wrap;html=1;strokeColor=#000000;fillColor=none;dashed=1;strokeWidth=5;" parent="1" vertex="1">
          <mxGeometry x="334" y="161.39999999999998" width="428" height="321.6" as="geometry" />
        </mxCell>
        <mxCell id="wdfUIwA4EHPiVqjbUW1X-7" value="" style="rounded=1;whiteSpace=wrap;html=1;strokeColor=#000000;fillColor=none;dashed=1;strokeWidth=5;" parent="1" vertex="1">
          <mxGeometry x="67" y="161.39999999999998" width="216" height="321.6" as="geometry" />
        </mxCell>
        <mxCell id="lHOGtCii_1D8-ynuGwen-11" style="edgeStyle=orthogonalEdgeStyle;rounded=0;orthogonalLoop=1;jettySize=auto;html=1;exitX=1;exitY=0.5;exitDx=0;exitDy=0;fontSize=15;dashed=1;strokeWidth=5;dashPattern=1 1;" parent="1" source="wdfUIwA4EHPiVqjbUW1X-1" target="U5H95pQ-bFL1ZXfvbdUM-2" edge="1">
          <mxGeometry relative="1" as="geometry" />
        </mxCell>
        <mxCell id="wdfUIwA4EHPiVqjbUW1X-1" value="" style="rounded=1;whiteSpace=wrap;html=1;strokeColor=none;fillColor=#67AB9F;fontSize=15;" parent="1" vertex="1">
          <mxGeometry x="114.75" y="385" width="120" height="60" as="geometry" />
        </mxCell>
        <mxCell id="wdfUIwA4EHPiVqjbUW1X-2" value="key3" style="text;html=1;strokeColor=none;fillColor=none;align=center;verticalAlign=middle;whiteSpace=wrap;rounded=0;fontSize=15;" parent="1" vertex="1">
          <mxGeometry x="132.75" y="405" width="81" height="20" as="geometry" />
        </mxCell>
        <mxCell id="lHOGtCii_1D8-ynuGwen-12" style="edgeStyle=orthogonalEdgeStyle;rounded=0;orthogonalLoop=1;jettySize=auto;html=1;exitX=1;exitY=0.5;exitDx=0;exitDy=0;entryX=0;entryY=0.5;entryDx=0;entryDy=0;fontSize=15;strokeWidth=5;dashed=1;dashPattern=1 1;" parent="1" source="wdfUIwA4EHPiVqjbUW1X-3" target="lHOGtCii_1D8-ynuGwen-1" edge="1">
          <mxGeometry relative="1" as="geometry" />
        </mxCell>
        <mxCell id="wdfUIwA4EHPiVqjbUW1X-3" value="key2" style="rounded=1;whiteSpace=wrap;html=1;strokeColor=none;fillColor=#FDD276;fontSize=15;" parent="1" vertex="1">
          <mxGeometry x="114.75" y="288" width="120" height="60" as="geometry" />
        </mxCell>
        <mxCell id="wdfUIwA4EHPiVqjbUW1X-5" value="" style="fontColor=#0066CC;verticalAlign=top;verticalLabelPosition=bottom;labelPosition=center;align=center;html=1;outlineConnect=0;gradientColor=none;gradientDirection=north;strokeWidth=2;shape=mxgraph.networks.server;fillColor=#4A919B;" parent="1" vertex="1">
          <mxGeometry x="410.75" y="631" width="82" height="91.11" as="geometry" />
        </mxCell>
        <mxCell id="wdfUIwA4EHPiVqjbUW1X-8" value="&lt;pre style=&quot;font-family: &amp;#34;source code pro&amp;#34; ; font-size: 30px&quot;&gt;&lt;pre style=&quot;font-family: &amp;#34;source code pro&amp;#34;&quot;&gt;全局哈希表&lt;/pre&gt;&lt;/pre&gt;" style="text;html=1;strokeColor=none;fillColor=none;align=center;verticalAlign=middle;whiteSpace=wrap;rounded=0;dashed=1;" parent="1" vertex="1">
          <mxGeometry x="46" y="19" width="639.25" height="69" as="geometry" />
        </mxCell>
        <mxCell id="wdfUIwA4EHPiVqjbUW1X-12" value="&lt;pre style=&quot;font-family: &amp;#34;source code pro&amp;#34;&quot;&gt;&lt;font style=&quot;font-size: 36px&quot;&gt;listen()&lt;/font&gt;&lt;/pre&gt;" style="text;html=1;strokeColor=none;fillColor=none;align=center;verticalAlign=middle;whiteSpace=wrap;rounded=0;dashed=1;" parent="1" vertex="1">
          <mxGeometry x="217" y="666.56" width="125.5" height="20" as="geometry" />
        </mxCell>
        <mxCell id="lHOGtCii_1D8-ynuGwen-13" style="edgeStyle=orthogonalEdgeStyle;rounded=0;orthogonalLoop=1;jettySize=auto;html=1;exitX=1;exitY=0.5;exitDx=0;exitDy=0;entryX=0;entryY=0.5;entryDx=0;entryDy=0;fontSize=15;strokeWidth=5;dashed=1;dashPattern=1 1;" parent="1" source="U5H95pQ-bFL1ZXfvbdUM-1" target="lHOGtCii_1D8-ynuGwen-4" edge="1">
          <mxGeometry relative="1" as="geometry" />
        </mxCell>
        <mxCell id="U5H95pQ-bFL1ZXfvbdUM-1" value="key1" style="rounded=1;whiteSpace=wrap;html=1;strokeColor=none;fillColor=#F19C99;fontSize=15;" parent="1" vertex="1">
          <mxGeometry x="117" y="199" width="120" height="60" as="geometry" />
        </mxCell>
        <mxCell id="U5H95pQ-bFL1ZXfvbdUM-2" value="sock31" style="rounded=1;whiteSpace=wrap;html=1;fontSize=15;dashed=1;fillColor=#67AB9F;strokeWidth=3;dashPattern=1 1;" parent="1" vertex="1">
          <mxGeometry x="372.25" y="385" width="120" height="60" as="geometry" />
        </mxCell>
        <mxCell id="U5H95pQ-bFL1ZXfvbdUM-3" value="sock32" style="rounded=1;whiteSpace=wrap;html=1;fillColor=#67AB9F;fontSize=15;" parent="1" vertex="1">
          <mxGeometry x="492.25" y="385" width="120" height="60" as="geometry" />
        </mxCell>
        <mxCell id="U5H95pQ-bFL1ZXfvbdUM-4" value="sock33" style="rounded=1;whiteSpace=wrap;html=1;fillColor=#67AB9F;fontSize=15;" parent="1" vertex="1">
          <mxGeometry x="612.25" y="385" width="120" height="60" as="geometry" />
        </mxCell>
        <mxCell id="U5H95pQ-bFL1ZXfvbdUM-5" value="&lt;span style=&quot;font-size: 30px&quot;&gt;ip-port&lt;/span&gt;" style="text;html=1;strokeColor=none;fillColor=none;align=center;verticalAlign=middle;whiteSpace=wrap;rounded=0;" parent="1" vertex="1">
          <mxGeometry x="74" y="90" width="219.5" height="61" as="geometry" />
        </mxCell>
        <mxCell id="lHOGtCii_1D8-ynuGwen-1" value="sock21" style="rounded=1;whiteSpace=wrap;html=1;fillColor=#FDD276;fontSize=15;" parent="1" vertex="1">
          <mxGeometry x="373" y="288" width="120" height="60" as="geometry" />
        </mxCell>
        <mxCell id="lHOGtCii_1D8-ynuGwen-2" value="sock22" style="rounded=1;whiteSpace=wrap;html=1;fillColor=#FDD276;fontSize=15;" parent="1" vertex="1">
          <mxGeometry x="493" y="288" width="120" height="60" as="geometry" />
        </mxCell>
        <mxCell id="lHOGtCii_1D8-ynuGwen-3" value="sock23" style="rounded=1;whiteSpace=wrap;html=1;fillColor=#FDD276;fontSize=15;" parent="1" vertex="1">
          <mxGeometry x="613" y="288" width="120" height="60" as="geometry" />
        </mxCell>
        <mxCell id="lHOGtCii_1D8-ynuGwen-4" value="sock11" style="rounded=1;whiteSpace=wrap;html=1;fillColor=#F19C99;fontSize=15;" parent="1" vertex="1">
          <mxGeometry x="373" y="199" width="120" height="60" as="geometry" />
        </mxCell>
        <mxCell id="lHOGtCii_1D8-ynuGwen-5" value="sock12" style="rounded=1;whiteSpace=wrap;html=1;fillColor=#F19C99;fontSize=15;" parent="1" vertex="1">
          <mxGeometry x="493" y="199" width="120" height="60" as="geometry" />
        </mxCell>
        <mxCell id="lHOGtCii_1D8-ynuGwen-6" value="sock13" style="rounded=1;whiteSpace=wrap;html=1;fillColor=#F19C99;fontSize=15;" parent="1" vertex="1">
          <mxGeometry x="613" y="199" width="120" height="60" as="geometry" />
        </mxCell>
        <mxCell id="lHOGtCii_1D8-ynuGwen-8" value="&lt;font style=&quot;font-size: 30px&quot;&gt;sock&lt;/font&gt;" style="text;html=1;strokeColor=none;fillColor=none;align=center;verticalAlign=middle;whiteSpace=wrap;rounded=0;" parent="1" vertex="1">
          <mxGeometry x="432" y="90" width="219.5" height="61" as="geometry" />
        </mxCell>
        <mxCell id="lHOGtCii_1D8-ynuGwen-17" value="&lt;font style=&quot;font-size: 18px&quot;&gt;1.listen()时把sock放入全局hash中&lt;/font&gt;" style="text;html=1;strokeColor=none;fillColor=none;align=center;verticalAlign=middle;whiteSpace=wrap;rounded=0;fontSize=15;" parent="1" vertex="1">
          <mxGeometry x="98" y="540" width="188" height="54" as="geometry" />
        </mxCell>
        <mxCell id="yFPqrvO77qKaXTLS87Z0-1" value="" style="curved=1;endArrow=classic;html=1;dashed=1;dashPattern=1 1;strokeWidth=5;" parent="1" edge="1">
          <mxGeometry width="50" height="50" relative="1" as="geometry">
            <mxPoint x="234.75" y="622" as="sourcePoint" />
            <mxPoint x="378.75" y="450" as="targetPoint" />
            <Array as="points">
              <mxPoint x="310.75" y="601" />
              <mxPoint x="310.75" y="498" />
            </Array>
          </mxGeometry>
        </mxCell>
        <mxCell id="yFPqrvO77qKaXTLS87Z0-2" value="sock31" style="rounded=1;whiteSpace=wrap;html=1;fontSize=15;dashed=1;fillColor=#67AB9F;" parent="1" vertex="1">
          <mxGeometry x="88" y="644" width="120" height="60" as="geometry" />
        </mxCell>
        <mxCell id="yFPqrvO77qKaXTLS87Z0-3" value="&lt;pre style=&quot;font-family: &amp;#34;source code pro&amp;#34;&quot;&gt;&lt;font style=&quot;font-size: 36px&quot;&gt;recv()&lt;/font&gt;&lt;/pre&gt;" style="text;html=1;strokeColor=none;fillColor=none;align=center;verticalAlign=middle;whiteSpace=wrap;rounded=0;dashed=1;" parent="1" vertex="1">
          <mxGeometry x="569.5" y="664" width="125.5" height="20" as="geometry" />
        </mxCell>
        <mxCell id="yFPqrvO77qKaXTLS87Z0-4" value="" style="curved=1;endArrow=classic;html=1;dashed=1;dashPattern=1 1;strokeWidth=5;" parent="1" edge="1">
          <mxGeometry width="50" height="50" relative="1" as="geometry">
            <mxPoint x="447" y="452" as="sourcePoint" />
            <mxPoint x="599" y="562" as="targetPoint" />
            <Array as="points">
              <mxPoint x="447" y="506" />
              <mxPoint x="504" y="543" />
            </Array>
          </mxGeometry>
        </mxCell>
        <mxCell id="yFPqrvO77qKaXTLS87Z0-6" value="&lt;font style=&quot;font-size: 18px&quot;&gt;2.recv()数据时会从全局hash中取出sock&lt;/font&gt;" style="text;html=1;strokeColor=none;fillColor=none;align=center;verticalAlign=middle;whiteSpace=wrap;rounded=0;fontSize=15;" parent="1" vertex="1">
          <mxGeometry x="666" y="515" width="188" height="54" as="geometry" />
        </mxCell>
        <mxCell id="yFPqrvO77qKaXTLS87Z0-8" value="sock31" style="rounded=1;whiteSpace=wrap;html=1;fontSize=15;dashed=1;fillColor=#67AB9F;" parent="1" vertex="1">
          <mxGeometry x="569.5" y="584" width="120" height="60" as="geometry" />
        </mxCell>
        <mxCell id="yFPqrvO77qKaXTLS87Z0-9" value="&lt;pre style=&quot;font-family: &amp;#34;source code pro&amp;#34;&quot;&gt;&lt;font style=&quot;font-size: 24px&quot;&gt;服务端&lt;/font&gt;&lt;/pre&gt;" style="text;html=1;strokeColor=none;fillColor=none;align=center;verticalAlign=middle;whiteSpace=wrap;rounded=0;dashed=1;" parent="1" vertex="1">
          <mxGeometry x="386" y="736" width="125.5" height="20" as="geometry" />
        </mxCell>
      </root>
    </mxGraphModel>
  </diagram>
</mxfile>
